<?xml version="1.0" encoding="UTF-8"?>
<svg width="103px" height="74px" viewBox="0 0 103 74" version="1.1" xmlns="http://www.w3.org/2000/svg" xmlns:xlink="http://www.w3.org/1999/xlink">
    <!-- Generator: Sketch 57.1 (83088) - https://sketch.com -->
    <title>1023</title>
    <desc>Created with Sketch.</desc>
    <g id="页面-1" stroke="none" stroke-width="1" fill="none" fill-rule="evenodd" stroke-linecap="round">
        <g id="1023" transform="translate(4.402832, 4.000000)" stroke="#ffffff" stroke-width="7">
            <path d="M61.8334961,0 C64.7073157,0 71.9667558,0 78.597168,0 C84.1200155,0 88.597168,4.4771525 88.597168,10 L88.5977814,27.7085651 C92.605836,29.2101697 94.6098633,30.7117743 94.6098633,32.2133789 C94.6098633,33.7149835 92.605836,35.2165881 88.5977814,36.7181927 L88.597168,56 C88.597168,61.5228475 84.1200155,66 78.597168,66 C64.7294499,66 55.1013575,66 49.7128906,66 L60.4628906,38.1518555 M33.1547852,66 C29.9197591,66 25.0672201,66 18.597168,66 C13.0743205,66 8.59716797,61.5228475 8.59716797,56 L8.59666895,37.6001622 C2.86555632,35.8045677 0,34.0089733 0,32.2133789 C0,30.4177845 2.86555632,28.6221901 8.59666895,26.8265957 L8.59716797,10 C8.59716797,4.57076009 12.9238388,0.152068282 18.3172631,0.00384179753 L18.597168,0 C29.9867079,0 41.6101617,0 47.3049316,0 L35.8676758,26.0776367" id="形状" stroke-linejoin="round"></path>
            <!-- <path d="M57.3198242,9.95263672 L38.2709961,54.0537109" id="路径-2"></path> -->
        </g>
    </g>
</svg>